<svg width="195" height="34" viewBox="0 0 195 34" fill="none" xmlns="http://www.w3.org/2000/svg">
<path d="M66 25.7603H68.6656V10.2473L75.4322 25.7603H77.307L84.0443 10.2773V25.7603H86.7099V4.99625H83.8685L76.3696 22.1596L68.8707 4.99625H66V25.7603Z" fill="#00191A"/>
<path d="M88.4038 17.4787C88.4038 22.5797 91.7139 26.0304 95.9906 26.0304C98.9492 26.0304 101.029 24.4701 101.996 22.6997V25.7603H104.691V9.3171H101.996V12.3177C101.058 10.6073 99.0078 9.04704 96.0199 9.04704C91.7139 9.04704 88.4038 12.3477 88.4038 17.4787ZM101.996 17.5087C101.996 21.3794 99.4765 23.6299 96.5472 23.6299C93.6179 23.6299 91.1281 21.3494 91.1281 17.4787C91.1281 13.6079 93.6179 11.4175 96.5472 11.4175C99.4765 11.4175 101.996 13.698 101.996 17.5087Z" fill="#00191A"/>
<path d="M106.368 17.4787C106.368 22.5797 109.679 26.0304 113.985 26.0304C116.914 26.0304 118.994 24.44 119.96 22.6697V26.1204C119.96 29.6311 117.822 31.4914 114.981 31.4914C112.344 31.4914 110.44 30.1412 109.854 28.1608H107.218C107.745 31.6715 110.762 33.8619 114.981 33.8619C119.697 33.8619 122.655 30.6513 122.655 26.1204V9.3171H119.96V12.3177C119.023 10.5473 116.914 9.04704 113.985 9.04704C109.679 9.04704 106.368 12.3477 106.368 17.4787ZM119.96 17.5087C119.96 21.3794 117.441 23.6299 114.512 23.6299C111.583 23.6299 109.093 21.3494 109.093 17.4787C109.093 13.6079 111.583 11.4175 114.512 11.4175C117.441 11.4175 119.96 13.698 119.96 17.5087Z" fill="#00191A"/>
<path d="M138.599 20.0592C138.599 12.3177 127.585 15.6783 127.585 10.2773C127.585 8.02685 129.313 6.85662 131.51 6.91663C134 6.94663 135.289 8.53695 135.464 9.94722H138.394C138.071 6.7666 135.523 4.57617 131.627 4.57617C127.585 4.57617 124.86 6.91663 124.86 10.3673C124.86 18.1388 135.904 14.5381 135.904 20.1792C135.904 22.1596 134.38 23.6599 131.803 23.6599C128.961 23.6599 127.76 21.9196 127.585 20.1792H124.743C124.802 23.6299 127.702 25.9703 131.803 25.9703C136.226 25.9703 138.599 23.0298 138.599 20.0592Z" fill="#00191A"/>
<path d="M143.825 25.7603H146.578L150.445 12.7078L154.312 25.7603H157.065L162.074 9.3171H159.438L155.806 23.1498L151.91 9.3171H149.185L145.202 23.1198L141.511 9.3171H138.787L143.825 25.7603Z" fill="#00191A"/>
<path d="M161.893 17.4787C161.893 22.5797 165.203 26.0304 169.48 26.0304C172.438 26.0304 174.518 24.4701 175.485 22.6997V25.7603H178.18V9.3171H175.485V12.3177C174.547 10.6073 172.497 9.04704 169.509 9.04704C165.203 9.04704 161.893 12.3477 161.893 17.4787ZM175.485 17.5087C175.485 21.3794 172.966 23.6299 170.036 23.6299C167.107 23.6299 164.617 21.3494 164.617 17.4787C164.617 13.6079 167.107 11.4175 170.036 11.4175C172.966 11.4175 175.485 13.698 175.485 17.5087Z" fill="#00191A"/>
<path d="M186.946 22.6397L181.908 9.3171H178.95L185.423 25.5803L182.26 33.5018H185.013L194.68 9.3171H191.926L186.946 22.6397Z" fill="#00191A"/>
<path fill-rule="evenodd" clip-rule="evenodd" d="M22.1817 3.58946C20.9746 1.47295 18.3007 0.749913 16.2109 1.9725C14.1212 3.19508 13.4073 5.90317 14.6144 8.01969L27.7371 31.0385C28.9443 33.155 31.6181 33.878 33.7079 32.6554C35.7977 31.4328 36.5116 28.7247 35.3044 26.6082L22.1817 3.58946Z" fill="#01D2D6"/>
<path fill-rule="evenodd" clip-rule="evenodd" d="M38.2911 2.96153C37.084 0.845017 34.4101 0.121984 32.3203 1.34457C30.2305 2.56715 29.5166 5.27524 30.7238 7.39176L43.8465 30.4105C45.0536 32.527 47.7275 33.2501 49.8173 32.0275C51.9071 30.8049 52.621 28.0968 51.4138 25.9803L38.2911 2.96153Z" fill="#01D2D6"/>
<path fill-rule="evenodd" clip-rule="evenodd" d="M7.46212 15.2294C8.42264 13.5336 10.5643 12.9551 12.2387 13.9279C13.9132 14.9008 14.4843 17.0699 13.5238 18.7657L6.52756 31.0441C5.56705 32.74 3.42535 33.3184 1.75094 32.3456C0.0765282 31.3728 -0.494589 29.2037 0.465927 27.5078L7.46212 15.2294Z" fill="#01D2D6"/>
</svg>
